<svg width="20" height="20" viewBox="0 0 20 20" fill="none" xmlns="http://www.w3.org/2000/svg">
<path fill-rule="evenodd" clip-rule="evenodd" d="M12.4215 13.5997C11.2925 14.4773 9.87401 14.9998 8.33342 14.9998C4.65152 14.9998 1.66675 12.0151 1.66675 8.33317C1.66675 4.65127 4.65152 1.6665 8.33342 1.6665C12.0153 1.6665 15.0001 4.65127 15.0001 8.33317C15.0001 9.87376 14.4775 11.2923 13.6 12.4212L18.0893 16.9106C18.4148 17.236 18.4148 17.7637 18.0893 18.0891C17.7639 18.4145 17.2363 18.4145 16.9108 18.0891L12.4215 13.5997ZM13.3334 8.33317C13.3334 11.0946 11.0948 13.3332 8.33342 13.3332C5.57199 13.3332 3.33341 11.0946 3.33341 8.33317C3.33341 5.57175 5.57199 3.33317 8.33342 3.33317C11.0948 3.33317 13.3334 5.57175 13.3334 8.33317Z" fill="#777E91"/>
</svg>
